<svg width="100" height="100" viewBox="0 0 100 100" fill="none" xmlns="http://www.w3.org/2000/svg">
<g clip-path="url(#clip0_133_1421)">
<path d="M73.5 50C73.5 62.9787 62.9787 73.5 50 73.5C37.0213 73.5 26.5 62.9787 26.5 50C26.5 37.0213 37.0213 26.5 50 26.5C62.9787 26.5 73.5 37.0213 73.5 50Z" stroke="#18181B"/>
<path d="M85.5 50C85.5 69.6061 69.6061 85.5 50 85.5C30.3939 85.5 14.5 69.6061 14.5 50C14.5 30.3939 30.3939 14.5 50 14.5C69.6061 14.5 85.5 30.3939 85.5 50Z" stroke="#18181B"/>
<path d="M0 0L100 100M0 100L100 0" stroke="#18181B"/>
</g>
<defs>
<clipPath id="clip0_133_1421">
<rect width="100" height="100" fill="white"/>
</clipPath>
</defs>
</svg>
