<svg width="947" height="256" viewBox="0 0 947 256" fill="none" xmlns="http://www.w3.org/2000/svg">
<path d="M741.12 117L734.432 93.96H737.936L742.784 111.384L747.632 93.976L751.152 93.96L756 111.384L760.848 93.96H764.368L757.664 117H754.336L749.392 99.768L744.448 117H741.12ZM772.81 117.48C767.642 117.48 764.186 113.848 764.186 108.504C764.186 102.84 767.594 99.24 772.65 99.24C777.93 99.24 781.002 103.112 780.65 109.304H767.77C768.042 112.504 769.738 114.328 772.65 114.328C774.73 114.328 776.298 113.352 777.146 111.576L780.426 112.616C779.082 115.704 776.154 117.48 772.81 117.48ZM767.85 106.696H777.226C776.874 103.656 775.434 102.2 772.778 102.2C769.914 102.2 768.282 103.768 767.85 106.696ZM792.352 117.48C790.176 117.48 788.448 116.712 787.2 115.432V117H784.224V93.96H787.584V100.904C788.784 99.848 790.352 99.24 792.288 99.24C797.152 99.24 800.176 103.128 800.176 108.344C800.176 113.528 797.168 117.48 792.352 117.48ZM787.2 108.344C787.2 111.928 788.592 114.456 791.888 114.456C795.104 114.456 796.624 111.768 796.624 108.344C796.624 104.952 795.104 102.264 791.776 102.264C788.624 102.264 787.2 104.76 787.2 108.344Z" fill="#FAFAFA"/>
<path d="M171.812 86.041H189.222V111.672H201.796V86.041H219.206V111.672H229.707L223.895 120.498H214.435C212.865 120.498 211.505 121.202 210.6 122.487C209.74 123.707 209.481 125.139 209.853 126.582L209.856 126.596L215.672 148.116L215.682 148.151C216.127 149.626 216.958 150.882 218.161 151.846C218.494 152.113 218.843 152.345 219.206 152.542V176.959C219.206 176.959 217.24 174.226 215.821 172.606C214.236 170.799 213.259 169.857 211.468 168.254C209.666 166.641 208.622 165.76 206.632 164.385C204.82 163.134 201.796 161.484 201.796 161.484V127.148H189.222V158.582H171.812V86.041Z" fill="#FAFAFA"/>
<path d="M237.187 141.568C238.439 141.568 239.51 141.113 240.401 140.204C241.292 139.295 241.738 138.202 241.738 136.925C241.738 135.649 241.292 134.556 240.401 133.647C239.51 132.738 238.439 132.283 237.187 132.283C235.936 132.283 234.865 132.738 233.974 133.647C233.082 134.556 232.637 135.649 232.637 136.925C232.637 138.202 233.082 139.295 233.974 140.204C234.865 141.113 235.936 141.568 237.187 141.568Z" fill="#FAFAFA"/>
<path fill-rule="evenodd" clip-rule="evenodd" d="M222.455 150.853C221.431 150.853 220.521 150.533 219.725 149.895C218.929 149.257 218.379 148.435 218.075 147.429L212.274 125.958C212.084 125.223 212.207 124.546 212.643 123.927C213.079 123.308 213.677 122.998 214.435 122.998H225.242L235.253 107.794C235.443 107.485 235.708 107.233 236.05 107.04C236.391 106.847 236.751 106.75 237.13 106.75C237.51 106.75 237.87 106.847 238.211 107.04C238.553 107.233 238.818 107.485 239.008 107.794L249.019 122.998H259.94C260.698 122.998 261.296 123.308 261.732 123.927C262.168 124.546 262.291 125.223 262.101 125.958L256.3 147.429C255.996 148.435 255.446 149.257 254.65 149.895C253.854 150.533 252.944 150.853 251.92 150.853H222.455ZM251.977 146.21H222.398L217.393 127.641H256.982L251.977 146.21ZM243.558 122.998H230.76L237.13 113.249L243.558 122.998Z" fill="#FAFAFA"/>
<path d="M302.88 160V99.52H311.658V125.602H341.898V99.52H350.718V160H341.898V133.876H311.658V160H302.88ZM375.327 161.26C365.289 161.26 359.997 155.044 359.997 147.652C359.997 140.806 363.693 136.438 370.707 134.212C375.957 132.658 383.433 131.692 390.783 130.684C390.489 124.426 387.633 121.486 380.535 121.486C375.747 121.486 371.379 123.586 369.825 128.626L361.635 126.106C363.819 118.336 370.119 113.38 380.619 113.38C388.725 113.38 395.025 116.068 397.839 122.032C399.267 125.014 399.435 128.29 399.435 132.07V160H391.665V153.406C387.927 158.74 382.677 161.26 375.327 161.26ZM368.691 147.568C368.691 151.096 371.253 154.078 376.881 154.078C384.357 154.078 388.767 149.5 389.775 145.09C390.489 142.99 390.657 140.092 390.699 137.992C383.853 139 378.771 139.714 374.949 140.848C371.337 142.066 368.691 143.998 368.691 147.568ZM429.745 161.26C415.843 161.26 407.905 151.138 407.821 137.32C407.905 123.292 416.137 113.38 429.871 113.38C439.783 113.38 447.259 118.672 449.527 127.198L440.791 129.718C439.069 124.636 434.827 121.654 429.745 121.654C421.135 121.654 417.187 128.248 417.145 137.32C417.187 146.686 421.429 152.986 429.745 152.986C435.373 152.986 438.775 150.298 440.623 145.426L449.527 147.526C446.545 156.43 439.489 161.26 429.745 161.26ZM458.041 160L458.083 99.52H466.987V136.48L484.795 114.64H495.967L477.151 137.32L497.899 160H485.971L466.987 138.16V160H458.041ZM540.874 161.26C527.812 161.26 518.11 154.162 516.136 142.654L525.292 141.268C527.14 148.702 533.524 152.986 541.378 152.986C548.644 152.986 554.902 149.374 554.902 143.326C554.902 138.958 551.752 136.732 547.3 135.388L531.802 130.81C525.754 129.046 518.488 125.434 518.488 115.648C518.488 104.434 527.98 98.26 540.16 98.302C552.424 98.428 561.16 104.896 563.638 116.026L554.23 117.622C552.928 110.776 546.964 106.702 540.034 106.618C533.272 106.492 527.77 110.062 527.77 115.228C527.77 120.268 532.894 122.074 537.178 123.25L548.35 126.4C553.936 127.954 564.058 130.936 564.058 142.738C564.058 154.918 553.348 161.26 540.874 161.26ZM598.965 160C590.439 161.68 581.661 160.798 578.343 154.498C576.369 150.76 576.663 147.106 576.663 142.15V121.696H567.969V114.64H576.663V102.04H585.483V114.64H598.965V121.696H585.483V141.73C585.483 145.384 585.315 148.03 586.407 149.878C588.423 153.322 593.043 153.448 598.965 152.566V160ZM626.094 161.26C612.486 161.26 603.876 151.348 603.876 137.278C603.876 123.082 612.738 113.38 626.094 113.38C639.702 113.38 648.354 123.25 648.354 137.278C648.354 151.474 639.618 161.26 626.094 161.26ZM613.2 137.278C613.2 146.854 617.61 152.986 626.094 152.986C634.746 152.986 639.03 146.56 639.03 137.278C639.03 127.786 634.662 121.654 626.094 121.654C617.274 121.654 613.2 128.038 613.2 137.278ZM657.583 160V114.64H665.395V121.864C666.445 119.974 667.873 118.336 669.595 117.202C672.997 114.682 677.995 113.884 682.069 114.64V122.872C679.129 122.074 675.181 122.326 672.157 124.258C667.873 126.988 666.445 131.776 666.445 137.11V160H657.583ZM709.365 161.26C695.799 161.26 686.727 151.726 686.727 137.698C686.727 122.83 695.673 113.38 708.945 113.38C722.805 113.38 730.869 123.544 729.945 139.798H696.135C696.849 148.198 701.301 152.986 708.945 152.986C714.405 152.986 718.521 150.424 720.747 145.762L729.357 148.492C725.829 156.598 718.143 161.26 709.365 161.26ZM696.345 132.952H720.957C720.033 124.972 716.253 121.15 709.281 121.15C701.763 121.15 697.479 125.266 696.345 132.952Z" fill="#FAFAFA"/>
</svg>
